Coordinates
version=1
nRows=26
nColumns=22
inDegrees=yes

Units are S.I. units (second, meters, Newtons, ...)
If the header above contains a line with 'inDegrees', this indicates whether rotational values are in degrees (yes) or radians (no).

endheader
time	pelvis_tilt	pelvis_list	pelvis_rotation	pelvis_tx	pelvis_ty	pelvis_tz	hip_flexion_r	hip_adduction_r	hip_rotation_r	knee_angle_r	ankle_angle_r	subtalar_angle_r	hip_flexion_l	hip_adduction_l	hip_rotation_l	knee_angle_l	ankle_angle_l	subtalar_angle_l	lumbar_extension	lumbar_bending	lumbar_rotation
      0.01000000	    -10.16802339	     -2.96890043	      0.67087071	     -1.05867141	      0.88499439	     -0.54326436	     11.25754292	     -0.52871284	      6.60060657	     -4.71976925	      8.49167822	      1.79459043	     10.45158321	     -7.18067262	    -12.36662492	    -10.70720296	     12.48775117	      6.81142250	      2.34455446	      1.76065185	     15.94777028
      0.02000000	    -10.17709093	     -2.94631177	      0.66687727	     -1.05880206	      0.88496521	     -0.54320183	     11.26643819	     -0.55427256	      6.66406410	     -4.70722403	      8.50924651	      1.78972786	     10.44129786	     -7.16225839	    -12.35327136	    -10.65960480	     12.47452093	      6.83148517	      2.33004265	      1.78574410	     15.94268966
      0.03000000	    -10.18690374	     -2.92499629	      0.66431997	     -1.05893555	      0.88493867	     -0.54312577	     11.26185086	     -0.57976779	      6.73192602	     -4.66584012	      8.51990408	      1.77988361	     10.43516112	     -7.14768313	    -12.34309735	    -10.61814292	     12.44407659	      6.86222135	      2.31459487	      1.81743925	     15.94557076
      0.04000000	    -10.19453717	     -2.90409474	      0.66523471	     -1.05908719	      0.88491878	     -0.54304175	     11.25730365	     -0.60394132	      6.79192350	     -4.62646082	      8.51659101	      1.76622825	     10.42817405	     -7.13434895	    -12.33855841	    -10.57474190	     12.41527571	      6.90257798	      2.29149885	      1.85247258	     15.93208842
      0.05000000	    -10.20078505	     -2.88476705	      0.67361552	     -1.05924491	      0.88490766	     -0.54295656	     11.24816853	     -0.62695639	      6.83767713	     -4.58144589	      8.51431582	      1.74951487	     10.42513383	     -7.12265673	    -12.33168910	    -10.53628765	     12.37795547	      6.95527745	      2.26604620	      1.88735140	     15.91419843
      0.06000000	    -10.20461108	     -2.86606493	      0.68856073	     -1.05940944	      0.88490277	     -0.54287381	     11.24155753	     -0.64891578	      6.86282750	     -4.54633173	      8.50670442	      1.73196905	     10.42402519	     -7.11076392	    -12.32563145	    -10.50129810	     12.34182040	      7.01750115	      2.23654063	      1.91958544	     15.87861003
      0.07000000	    -10.19859837	     -2.84661925	      0.71875498	     -1.05956675	      0.88491788	     -0.54281509	     11.21594255	     -0.67451404	      6.84948952	     -4.49681706	      8.49459772	      1.69546241	     10.41476215	     -7.09383856	    -12.28900088	    -10.46385424	     12.29069019	      7.16696354	      2.19908158	      1.94396544	     15.84731504
      0.08000000	    -10.20205610	     -2.83558692	      0.73189253	     -1.05975042	      0.88491331	     -0.54271183	     11.22599320	     -0.68330462	      6.86068506	     -4.49150294	      8.49914576	      1.69066971	     10.42342058	     -7.09202064	    -12.30141386	    -10.44232568	     12.27772651	      7.19324353	      2.17035818	      1.97296612	     15.79544913
      0.09000000	    -10.20004039	     -2.82050963	      0.78139119	     -1.05991121	      0.88492716	     -0.54268057	     11.21374884	     -0.70623916	      6.82153765	     -4.46384319	      8.50354284	      1.67255323	     10.43026948	     -7.07560219	    -12.25920968	    -10.41504820	     12.21633313	      7.31171658	      2.14220477	      1.98892974	     15.72479473
      0.10000000	    -10.20032352	     -2.81125492	      0.79810392	     -1.06007754	      0.88493185	     -0.54258380	     11.22429672	     -0.71183219	      6.82556699	     -4.46679063	      8.50217466	      1.66904061	     10.43310329	     -7.07338409	    -12.27442235	    -10.38744032	     12.20709102	      7.34070016	      2.11708830	      2.00642232	     15.66484527
      0.11000000	    -10.18220033	     -2.80002787	      0.85417115	     -1.06020236	      0.88496617	     -0.54257219	     11.20139357	     -0.72929584	      6.76738881	     -4.45602950	      8.50843035	      1.64646205	     10.41195072	     -7.05749909	    -12.23027659	    -10.34015680	     12.16642069	      7.54719138	      2.07897770	      2.01673760	     15.57741622
      0.12000000	    -10.18146958	     -2.79404128	      0.87835139	     -1.06032918	      0.88497300	     -0.54250806	     11.20673144	     -0.73463510	      6.77073183	     -4.45812077	      8.50873636	      1.64428989	     10.41657154	     -7.05719492	    -12.26085730	    -10.31910967	     12.14410238	      7.56468839	      2.06405168	      2.02968700	     15.52076280
      0.13000000	    -10.16647043	     -2.77781182	      0.93545941	     -1.06042873	      0.88500589	     -0.54250073	     11.18509755	     -0.75715952	      6.70192856	     -4.44506639	      8.51944901	      1.62665349	     10.40133613	     -7.03629172	    -12.23831755	    -10.27834281	     12.06512375	      7.70149911	      2.03596811	      2.02452154	     15.41981314
      0.14000000	    -10.14878687	     -2.77407625	      0.97962756	     -1.06049289	      0.88503434	     -0.54248798	     11.16088369	     -0.76489105	      6.66528354	     -4.43544078	      8.52382874	      1.60533038	     10.36810703	     -7.02931454	    -12.22747638	    -10.22012232	     12.03750058	      7.86964358	      2.01218260	      2.03491452	     15.32902689
      0.15000000	    -10.14930703	     -2.77222730	      1.00489443	     -1.06055368	      0.88503322	     -0.54244356	     11.16465371	     -0.76671472	      6.67077155	     -4.44073378	      8.52120783	      1.60196982	     10.36045542	     -7.02993478	    -12.25920585	    -10.18288339	     12.03124776	      7.89000361	      2.01470836	      2.04395266	     15.26297114
      0.16000000	    -10.12761991	     -2.76723964	      1.07169650	     -1.06057446	      0.88506812	     -0.54246960	     11.12815559	     -0.78099050	      6.60436370	     -4.42690182	      8.52491755	      1.56636739	     10.31841425	     -7.01539272	    -12.21086412	    -10.11333431	     11.98309421	      8.08822549	      1.99705775	      2.04350539	     15.15121490
      0.17000000	    -10.13171701	     -2.77022454	      1.10118031	     -1.06059015	      0.88505827	     -0.54245643	     11.12764966	     -0.78161419	      6.60074577	     -4.42277517	      8.53175897	      1.56201197	     10.30882446	     -7.01731628	    -12.24568192	    -10.06975326	     11.96759940	      8.10545240	      2.01383586	      2.05581691	     15.08240306
      0.18000000	    -10.12384569	     -2.77094027	      1.18085684	     -1.06056432	      0.88507296	     -0.54251065	     11.09929268	     -0.79405938	      6.52051924	     -4.40580370	      8.54822271	      1.53261637	     10.27958521	     -7.00395357	    -12.17638177	     -9.99688096	     11.89630650	      8.21459886	      2.02598823	      2.05433399	     14.96687280
      0.19000000	    -10.12339146	     -2.77630528	      1.21419696	     -1.06054593	      0.88506461	     -0.54250318	     11.09713926	     -0.79211731	      6.52151763	     -4.41406299	      8.55134003	      1.52616589	     10.26069018	     -7.00656519	    -12.19518092	     -9.94983920	     11.89871220	      8.23415410	      2.04509805	      2.06040652	     14.89301833
      0.20000000	    -10.10841997	     -2.78571968	      1.29782837	     -1.06046436	      0.88508147	     -0.54257246	     11.06110658	     -0.79511721	      6.43169248	     -4.40582458	      8.57969707	      1.48886974	     10.21728768	     -6.99997052	    -12.09750403	     -9.87344617	     11.84440710	      8.32903096	      2.06025639	      2.06287780	     14.77478747
      0.21000000	    -10.10398643	     -2.79394374	      1.33171306	     -1.06039543	      0.88507406	     -0.54257255	     11.05379226	     -0.79026867	      6.43128878	     -4.41850361	      8.58456161	      1.48000706	     10.19084887	     -7.00523251	    -12.10771639	     -9.82870104	     11.84520423	      8.34601422	      2.08553811	      2.06453384	     14.70033123
      0.22000000	    -10.08250479	     -2.80969459	      1.40991706	     -1.06029761	      0.88509338	     -0.54264121	     11.01668613	     -0.78428113	      6.35466607	     -4.42257604	      8.62087277	      1.44330771	     10.13643095	     -7.00516649	    -12.01118239	     -9.74801497	     11.80211130	      8.40676903	      2.09563432	      2.06792440	     14.60016150
      0.23000000	    -10.05945463	     -2.82333215	      1.46337705	     -1.06018283	      0.88511049	     -0.54269254	     10.98291246	     -0.77783345	      6.31627826	     -4.43329317	      8.64209148	      1.41384121	     10.08048527	     -7.00860562	    -11.96843079	     -9.68236481	     11.78496930	      8.44736756	      2.10788916	      2.07042390	     14.51875659
      0.24000000	    -10.03826391	     -2.83789481	      1.50846637	     -1.06006586	      0.88512259	     -0.54273885	     10.95409850	     -0.76867945	      6.28995202	     -4.44931889	      8.66673647	      1.39227632	     10.02232282	     -7.01328238	    -11.93195656	     -9.61197849	     11.76744560	      8.47690456	      2.12358135	      2.07215745	     14.45089991
      0.25000000	    -10.01630282	     -2.85173953	      1.54962415	     -1.05994581	      0.88513314	     -0.54278191	     10.92596482	     -0.75979797	      6.26435860	     -4.46699847	      8.69301262	      1.37606550	      9.96044732	     -7.01746399	    -11.90038832	     -9.53743374	     11.75122159	      8.50327958	      2.14045532	      2.07006620	     14.39149450
      0.26000000	     -9.99550226	     -2.86481589	      1.58484234	     -1.05982828	      0.88514066	     -0.54281705	     10.89962598	     -0.75014045	      6.23996187	     -4.48431531	      8.71946842	      1.36405313	      9.89597223	     -7.02155532	    -11.87433809	     -9.45748487	     11.73508065	      8.52924919	      2.15941416	      2.06394712	     14.34080324
